<svg xmlns="http://www.w3.org/2000/svg" width="25" height="25" viewBox="0 0 25 25">
  <g id="object" transform="translate(-144.868 273.124)">
    <circle id="Ellipse_91" data-name="Ellipse 91" cx="0.636" cy="0.636" r="0.636" transform="translate(149.953 -270.582)"/>
    <circle id="Ellipse_92" data-name="Ellipse 92" cx="0.636" cy="0.636" r="0.636" transform="translate(147.517 -270.582)"/>
    <circle id="Ellipse_93" data-name="Ellipse 93" cx="0.636" cy="0.636" r="0.636" transform="translate(152.39 -270.582)"/>
    <path id="Path_2170" data-name="Path 2170" d="M28.953,30.436a1.907,1.907,0,1,0,1.907,1.907A1.909,1.909,0,0,0,28.953,30.436Zm0,2.542a.636.636,0,1,1,.636-.636A.636.636,0,0,1,28.953,32.979Zm-6.78-2.542a1.907,1.907,0,1,0,1.907,1.907A1.909,1.909,0,0,0,22.174,30.436Zm0,2.542a.636.636,0,1,1,.636-.636A.636.636,0,0,1,22.174,32.979Zm7.381-7.767.127-.3c.041,0,.078.012.119.012a4.449,4.449,0,1,0,0-8.9,4.388,4.388,0,0,0-.636.064V11.581A2.333,2.333,0,0,0,26.835,9.25H11.581A2.333,2.333,0,0,0,9.25,11.581V25.987a2.333,2.333,0,0,0,2.331,2.331h7.806a2.324,2.324,0,0,0,1.8.847h9.039a.636.636,0,0,0,0-1.271H21.185c-.743,0-1-.695-1.236-1.271h7.462A2.344,2.344,0,0,0,29.555,25.212Zm3.424-4.733A3.178,3.178,0,1,1,29.8,17.3,3.181,3.181,0,0,1,32.979,20.479Zm-21.4-9.958H26.835a1.06,1.06,0,0,1,1.059,1.059v2.754H10.521V11.581A1.06,1.06,0,0,1,11.581,10.521ZM10.521,25.987V15.606H27.894v.87a4.447,4.447,0,0,0-2.4,2.944H16.948l-.543-1.3a.636.636,0,0,0-.587-.391H13.275a.636.636,0,0,0,0,1.271h2.119l3.355,8.051H11.581A1.06,1.06,0,0,1,10.521,25.987Zm6.956-5.3h7.9A4.432,4.432,0,0,0,28.4,24.68l-.012.027a1.07,1.07,0,0,1-.977.645H19.42Z" transform="translate(135.618 -282.374)"/>
    <path id="Path_2171" data-name="Path 2171" d="M32.284,23.53a.65.65,0,0,0,.9,0l1.695-1.695a.636.636,0,1,0-.9-.9l-1.246,1.245-.4-.4a.636.636,0,1,0-.9.9Z" transform="translate(132.262 -284.128)"/>
  </g>
</svg>
